<svg xmlns="http://www.w3.org/2000/svg" xmlns:xlink="http://www.w3.org/1999/xlink" width="764" zoomAndPan="magnify" viewBox="0 0 573 645.000003" height="860" preserveAspectRatio="xMidYMid meet" version="1.0"><defs><g/><clipPath id="a5b1b3dd2f"><path d="M 32 0.597656 L 300.777344 0.597656 L 300.777344 321.097656 L 32 321.097656 Z M 32 0.597656 " clip-rule="nonzero"/></clipPath><clipPath id="e30d6a9a96"><path d="M 70 93 L 279 93 L 279 321.097656 L 70 321.097656 Z M 70 93 " clip-rule="nonzero"/></clipPath><clipPath id="8f55436520"><path d="M 249 32 L 520 32 L 520 378 L 249 378 Z M 249 32 " clip-rule="nonzero"/></clipPath><clipPath id="8465c7329d"><path d="M 310.660156 0.597656 L 571.914062 67.09375 L 492.859375 377.691406 L 231.605469 311.199219 Z M 310.660156 0.597656 " clip-rule="nonzero"/></clipPath><clipPath id="3453e09166"><path d="M 572.253906 67.179688 L 311 0.683594 L 218.832031 362.808594 L 480.082031 429.304688 Z M 572.253906 67.179688 " clip-rule="nonzero"/></clipPath><clipPath id="020c7ee196"><path d="M 265 123 L 470 123 L 470 378 L 265 378 Z M 265 123 " clip-rule="nonzero"/></clipPath><clipPath id="fbee8b7050"><path d="M 310.660156 0.597656 L 571.914062 67.09375 L 492.859375 377.691406 L 231.605469 311.199219 Z M 310.660156 0.597656 " clip-rule="nonzero"/></clipPath><clipPath id="b4621808b1"><path d="M 572.253906 67.179688 L 311 0.683594 L 218.832031 362.808594 L 480.082031 429.304688 Z M 572.253906 67.179688 " clip-rule="nonzero"/></clipPath><clipPath id="7d4bf1e7b5"><path d="M 37 211 L 512 211 L 512 465 L 37 465 Z M 37 211 " clip-rule="nonzero"/></clipPath><clipPath id="ec3bdbd3b0"><path d="M 0.734375 293.269531 L 351.636719 79.066406 L 531.894531 374.359375 L 180.992188 588.5625 Z M 0.734375 293.269531 " clip-rule="nonzero"/></clipPath><clipPath id="73bc80434c"><path d="M 0.734375 293.269531 L 351.636719 79.066406 L 531.894531 374.359375 L 180.992188 588.5625 Z M 0.734375 293.269531 " clip-rule="nonzero"/></clipPath><clipPath id="85bb15eb07"><path d="M 48 221 L 457 221 L 457 437 L 48 437 Z M 48 221 " clip-rule="nonzero"/></clipPath><clipPath id="f8edf72c31"><path d="M 0.734375 293.269531 L 351.636719 79.066406 L 531.894531 374.359375 L 180.992188 588.5625 Z M 0.734375 293.269531 " clip-rule="nonzero"/></clipPath><clipPath id="45a7a44acf"><path d="M 0.734375 293.269531 L 351.636719 79.066406 L 531.894531 374.359375 L 180.992188 588.5625 Z M 0.734375 293.269531 " clip-rule="nonzero"/></clipPath><clipPath id="962f0680ae"><path d="M 47 218 L 500 218 L 500 459 L 47 459 Z M 47 218 " clip-rule="nonzero"/></clipPath><clipPath id="2f769b9ebf"><path d="M 0.734375 293.269531 L 351.636719 79.066406 L 531.894531 374.359375 L 180.992188 588.5625 Z M 0.734375 293.269531 " clip-rule="nonzero"/></clipPath><clipPath id="154b951891"><path d="M 0.734375 293.269531 L 351.636719 79.066406 L 531.894531 374.359375 L 180.992188 588.5625 Z M 0.734375 293.269531 " clip-rule="nonzero"/></clipPath><clipPath id="9ee7cfb35a"><path d="M 173 257 L 502 257 L 502 449 L 173 449 Z M 173 257 " clip-rule="nonzero"/></clipPath><clipPath id="e2be9dd3f9"><path d="M 0.734375 293.269531 L 351.636719 79.066406 L 531.894531 374.359375 L 180.992188 588.5625 Z M 0.734375 293.269531 " clip-rule="nonzero"/></clipPath><clipPath id="1fb72f7740"><path d="M 0.734375 293.269531 L 351.636719 79.066406 L 531.894531 374.359375 L 180.992188 588.5625 Z M 0.734375 293.269531 " clip-rule="nonzero"/></clipPath></defs><g clip-path="url(#a5b1b3dd2f)"><path fill="#f89537" d="M 37.890625 245.816406 C 35.136719 238.222656 34.167969 234.871094 33.570312 231.742188 C 31.5625 221.6875 32.230469 213.050781 33.125 207.316406 C 39.007812 218.339844 59.859375 239.113281 59.859375 239.113281 C 59.859375 239.113281 65.445312 229.433594 68.273438 212.605469 C 70.65625 198.308594 71.253906 181.179688 71.402344 177.234375 C 71.476562 175.964844 71.402344 175.816406 71.476562 175.148438 C 72.59375 161.667969 77.953125 151.914062 79.070312 149.976562 C 84.953125 139.550781 88.527344 140.742188 93.667969 131.660156 C 103.347656 114.753906 100.371094 94.5 100.292969 94.425781 C 100.292969 94.425781 100.292969 94.5 100.21875 94.648438 C 105.136719 101.5 110.570312 111.777344 110.570312 124.433594 C 110.570312 126.96875 110.347656 129.050781 109.976562 130.839844 C 107.816406 141.339844 105.285156 145.210938 103.871094 151.316406 C 101.785156 160.105469 104.761719 167.699219 108.261719 176.414062 C 109.082031 178.5 116.675781 197.414062 121.890625 196.445312 C 126.804688 195.476562 123.453125 177.679688 128.742188 152.660156 C 134.550781 124.882812 143.1875 125.699219 150.632812 97.03125 C 156.964844 72.679688 151.976562 67.246094 158.75 40.4375 C 163.144531 22.9375 169.25 9.308594 173.644531 0.597656 C 171.707031 21.222656 174.242188 37.382812 176.847656 48.03125 C 180.199219 61.957031 185.484375 74.167969 189.207031 82.734375 C 196.058594 98.59375 197.472656 97.851562 201.570312 108.871094 C 207.230469 124.0625 208.71875 136.574219 210.132812 148.785156 C 211.847656 163.15625 212.292969 170.53125 211.027344 179.691406 C 210.058594 186.765625 209.089844 190.265625 207.75 197.488281 C 207.15625 200.613281 206.484375 203.519531 206.039062 207.613281 C 205.441406 213.871094 205.664062 220.273438 206.558594 220.347656 C 207.453125 220.421875 208.421875 212.828125 212.664062 204.859375 C 213.335938 203.59375 214.082031 202.253906 214.082031 202.253906 C 215.347656 200.167969 216.6875 198.753906 219.664062 194.210938 C 228.453125 181.105469 232.921875 174.550781 234.855469 167.253906 C 236.71875 160.179688 235.453125 158.167969 238.507812 146.105469 C 239.398438 142.457031 239.847656 139.476562 241.484375 136.277344 C 245.65625 127.785156 254.890625 116.839844 255.632812 115.722656 C 253.847656 133.816406 254.8125 148.042969 256.15625 157.796875 C 256.675781 161.816406 258.3125 172.839844 260.773438 172.914062 C 263.304688 172.988281 266.804688 160.105469 266.804688 160.105469 C 267.175781 163.457031 267.921875 169.042969 269.632812 175.816406 C 275.21875 198.082031 283.1875 202.105469 283.78125 217.742188 C 284.230469 228.539062 280.953125 239.414062 280.429688 241.125 C 277.453125 250.957031 273.582031 256.316406 275.21875 257.65625 C 277.230469 259.296875 285.644531 252.742188 291.003906 247.15625 C 295.472656 242.539062 298.304688 237.996094 300.015625 234.796875 C 300.761719 248.273438 298.601562 258.847656 296.664062 265.699219 C 295.324219 270.539062 293.089844 278.285156 287.730469 287.070312 C 282.964844 294.816406 281.25 294.445312 271.941406 306.136719 C 262.039062 318.496094 263.378906 319.761719 255.335938 328.476562 C 248.632812 335.699219 241.929688 341.0625 239.472656 342.996094 C 237.238281 344.785156 234.78125 346.570312 232.027344 348.433594 C 229.570312 350.070312 218.324219 357.59375 201.125 364.144531 C 191.21875 367.867188 180.941406 371.816406 169.773438 372.710938 C 146.910156 374.570312 129.261719 363.027344 106.847656 348.433594 C 85.921875 334.804688 71.550781 325.421875 62.761719 307.101562 C 57.847656 296.828125 59.039062 292.878906 50.402344 274.335938 C 46.828125 266.964844 42.582031 258.773438 37.890625 245.816406 Z M 37.890625 245.816406 " fill-opacity="1" fill-rule="nonzero"/></g><g clip-path="url(#e30d6a9a96)"><path fill="#ce4b33" d="M 266.503906 281.261719 C 269.632812 279.773438 273.953125 277.242188 278.644531 272.699219 C 277.824219 276.125 276.335938 281.335938 273.429688 287.21875 C 268.292969 297.496094 261.890625 303.304688 256.082031 309.335938 C 243.792969 321.996094 242.675781 326.464844 233.515625 336.890625 C 227.113281 344.1875 217.507812 353.570312 203.207031 363.328125 C 202.464844 363.625 201.71875 363.921875 200.972656 364.21875 C 191.070312 367.941406 180.792969 371.890625 169.625 372.785156 C 158.378906 373.675781 148.402344 371.367188 138.570312 367.050781 C 110.945312 348.582031 102.527344 337.5625 100.964844 330.710938 C 100.59375 329.070312 99.027344 320.953125 93.59375 311.570312 C 92.253906 309.1875 91.507812 308.21875 88.378906 303.828125 C 80.113281 292.507812 73.636719 286.773438 71.253906 275.753906 C 69.835938 269.125 70.433594 263.316406 71.253906 259.371094 C 73.710938 263.09375 78.402344 269.199219 86.21875 274.335938 C 93.292969 278.953125 100.070312 280.890625 104.316406 281.710938 C 96.050781 262.644531 94.484375 249.09375 94.785156 239.859375 C 94.859375 237.105469 95.304688 230.625 95.007812 221.316406 C 94.785156 212.828125 94.113281 205.828125 93.59375 201.136719 C 98.359375 204.488281 103.945312 209.105469 109.527344 215.136719 C 115.933594 222.0625 120.402344 228.839844 123.527344 234.421875 C 124.347656 233.902344 125.539062 233.15625 126.878906 232.039062 C 132.539062 227.199219 134.175781 221.242188 136.859375 212.53125 C 142.070312 195.773438 141.773438 199.273438 143.039062 193.765625 C 145.867188 181.03125 144.304688 176.191406 148.027344 164.796875 C 149.519531 160.253906 151.15625 156.753906 152.273438 154.59375 C 152.050781 156.605469 151.675781 161.371094 154.210938 166.734375 C 156.441406 171.574219 159.941406 174.402344 161.582031 175.519531 C 165.675781 161.296875 169.324219 143.871094 170.816406 123.914062 C 171.632812 113.117188 171.707031 103.0625 171.261719 93.976562 C 173.71875 98.96875 176.921875 106.265625 180.050781 115.351562 C 192.113281 150.871094 190.847656 182.148438 190.476562 188.550781 C 189.359375 209.402344 185.707031 212.53125 188.089844 226.828125 C 190.175781 239.113281 199.039062 255.570312 199.039062 255.570312 C 199.484375 253.859375 199.933594 252.148438 200.453125 250.359375 C 202.167969 244.550781 204.101562 239.113281 206.1875 234.199219 C 205.816406 237.699219 205.664062 242.761719 207.15625 248.496094 C 207.75 250.878906 208.570312 253.039062 209.390625 254.828125 C 212.515625 250.878906 216.910156 244.699219 220.933594 236.359375 C 225.921875 226.15625 226.070312 221.09375 230.613281 213.125 C 235.898438 203.890625 242.378906 197.5625 247.070312 193.613281 C 245.878906 196.59375 244.539062 201.285156 244.910156 206.945312 C 245.355469 213.125 247.664062 217.445312 248.1875 218.488281 C 251.316406 224.816406 253.101562 243.210938 248.78125 292.582031 C 250.421875 290.796875 253.027344 288.1875 256.824219 285.878906 C 260.546875 283.421875 262.929688 282.902344 266.503906 281.261719 Z M 266.503906 281.261719 " fill-opacity="1" fill-rule="nonzero"/></g><g clip-path="url(#8f55436520)"><g clip-path="url(#8465c7329d)"><g clip-path="url(#3453e09166)"><path fill="#f89537" d="M 505.277344 303.171875 C 509.820312 296.488281 511.585938 293.480469 512.933594 290.597656 C 517.363281 281.351562 518.84375 272.8125 519.390625 267.035156 C 510.972656 276.265625 485.640625 291.257812 485.640625 291.257812 C 485.640625 291.257812 482.617188 280.5 484.027344 263.492188 C 485.242188 249.046875 488.890625 232.300781 489.71875 228.441406 C 489.960938 227.195312 490.070312 227.070312 490.160156 226.402344 C 492.402344 213.0625 489.613281 202.289062 489.007812 200.136719 C 485.878906 188.582031 482.121094 188.855469 479.382812 178.78125 C 474.171875 160.011719 482.054688 141.117188 482.144531 141.0625 C 482.144531 141.0625 482.125 141.136719 482.160156 141.300781 C 475.707031 146.726562 467.90625 155.34375 464.78125 167.613281 C 464.160156 170.066406 463.859375 172.140625 463.78125 173.964844 C 463.285156 184.675781 464.78125 189.050781 464.648438 195.316406 C 464.5 204.347656 459.742188 210.972656 454.199219 218.554688 C 452.890625 220.371094 440.863281 236.828125 436.050781 234.605469 C 431.527344 232.457031 439.164062 216.035156 440.214844 190.480469 C 441.433594 162.132812 432.863281 160.792969 432.71875 131.171875 C 432.589844 106.011719 438.765625 101.976562 438.8125 74.324219 C 438.871094 56.28125 436.3125 41.570312 434.203125 32.042969 C 430.992188 52.507812 424.554688 67.546875 419.402344 77.222656 C 412.71875 89.890625 404.582031 100.421875 398.863281 107.800781 C 388.308594 121.484375 387.121094 120.414062 380.433594 130.085938 C 371.203125 143.410156 366.675781 155.167969 362.289062 166.652344 C 357.085938 180.160156 354.835938 187.191406 353.800781 196.382812 C 352.996094 203.476562 353.070312 207.105469 352.585938 214.4375 C 352.394531 217.617188 352.324219 220.59375 351.75 224.675781 C 350.78125 230.882812 348.988281 237.035156 348.101562 236.886719 C 347.21875 236.738281 348.152344 229.136719 346.003906 220.371094 C 345.667969 218.976562 345.277344 217.496094 345.277344 217.496094 C 344.566406 215.160156 343.613281 213.460938 341.847656 208.324219 C 336.566406 193.453125 333.851562 186 333.777344 178.453125 C 333.714844 171.136719 335.4375 169.5 335.457031 157.054688 C 335.488281 153.300781 335.792969 150.304688 334.992188 146.796875 C 333.046875 137.539062 326.796875 124.652344 326.351562 123.386719 C 323.621094 141.367188 319.175781 154.910156 315.46875 164.035156 C 313.972656 167.800781 309.664062 178.078125 307.265625 177.542969 C 304.792969 176.992188 304.578125 163.644531 304.578125 163.644531 C 303.390625 166.800781 301.292969 172.027344 297.960938 178.171875 C 287.058594 198.375 278.34375 200.304688 273.910156 215.3125 C 270.8125 225.667969 271.304688 237.011719 271.390625 238.800781 C 271.851562 249.058594 274.28125 255.210938 272.363281 256.105469 C 270.011719 257.199219 263.472656 248.773438 259.652344 242.035156 C 256.460938 236.460938 254.839844 231.359375 253.96875 227.835938 C 249.925781 240.714844 249.410156 251.492188 249.59375 258.609375 C 249.699219 263.632812 249.953125 271.6875 252.984375 281.527344 C 255.691406 290.207031 257.441406 290.269531 263.582031 303.894531 C 270.128906 318.316406 268.519531 319.214844 274.164062 329.640625 C 278.875 338.292969 284.046875 345.144531 285.953125 347.625 C 287.675781 349.910156 289.617188 352.246094 291.828125 354.730469 C 293.804688 356.925781 302.847656 366.988281 317.902344 377.582031 C 326.582031 383.632812 335.566406 389.992188 346.171875 393.613281 C 367.867188 401.054688 387.816406 394.222656 413.140625 385.609375 C 436.78125 377.5625 453.023438 372.015625 466.058594 356.429688 C 473.355469 347.683594 473.171875 343.5625 486.117188 327.726562 C 491.402344 321.460938 497.535156 314.570312 505.277344 303.171875 Z M 505.277344 303.171875 " fill-opacity="1" fill-rule="nonzero"/></g></g></g><g clip-path="url(#020c7ee196)"><g clip-path="url(#fbee8b7050)"><g clip-path="url(#b4621808b1)"><path fill="#ce4b33" d="M 274.984375 281.132812 C 272.320312 278.917969 268.757812 275.398438 265.332031 269.839844 C 265.28125 273.359375 265.4375 278.78125 266.800781 285.199219 C 269.246094 296.421875 274.019531 303.632812 278.160156 310.910156 C 286.945312 326.210938 286.925781 330.816406 293.230469 343.175781 C 297.636719 351.828125 304.632812 363.292969 316.082031 376.273438 C 316.730469 376.746094 317.378906 377.21875 318.027344 377.691406 C 326.707031 383.742188 335.691406 390.101562 346.296875 393.722656 C 356.972656 397.359375 367.214844 397.585938 377.804688 395.824219 C 409.132812 384.742188 420.007812 376.136719 423.210938 369.882812 C 423.976562 368.386719 427.496094 360.90625 435.078125 353.15625 C 436.964844 351.175781 437.925781 350.421875 442.039062 346.933594 C 452.84375 338.003906 460.535156 334.046875 465.5625 323.953125 C 468.570312 317.878906 469.425781 312.101562 469.605469 308.078125 C 466.304688 311.078125 460.25 315.839844 451.40625 318.890625 C 443.410156 321.621094 436.367188 321.824219 432.050781 321.570312 C 444.765625 305.136719 449.621094 292.386719 451.613281 283.363281 C 452.21875 280.675781 453.382812 274.289062 455.96875 265.339844 C 458.28125 257.167969 460.65625 250.550781 462.316406 246.132812 C 456.871094 248.203125 450.320312 251.300781 443.421875 255.769531 C 435.507812 260.898438 429.503906 266.367188 425.097656 271.007812 C 424.429688 270.300781 423.460938 269.285156 422.4375 267.871094 C 418.144531 261.785156 418.027344 255.605469 417.578125 246.5 C 416.660156 228.976562 416.085938 232.445312 416.21875 226.792969 C 416.617188 213.753906 419.324219 209.449219 418.527344 197.488281 C 418.203125 192.71875 417.480469 188.921875 416.929688 186.554688 C 416.652344 188.558594 415.835938 193.269531 412.0625 197.839844 C 408.703125 201.980469 404.613281 203.859375 402.75 204.535156 C 402.289062 189.742188 403.050781 171.957031 406.527344 152.246094 C 408.398438 141.582031 410.804688 131.820312 413.480469 123.125 C 409.867188 127.355469 404.964844 133.636719 399.691406 141.671875 C 379.242188 173.117188 372.753906 203.742188 371.535156 210.039062 C 367.472656 230.519531 370.238281 234.453125 364.402344 247.71875 C 359.351562 259.113281 346.703125 272.875 346.703125 272.875 C 346.691406 271.105469 346.683594 269.335938 346.617188 267.476562 C 346.390625 261.425781 345.855469 255.679688 345.046875 250.402344 C 344.542969 253.886719 343.441406 258.828125 340.582031 264.019531 C 339.417969 266.179688 338.089844 268.070312 336.855469 269.601562 C 334.796875 265.003906 332.066406 257.933594 330.226562 248.855469 C 327.90625 237.738281 329.011719 232.796875 326.574219 223.953125 C 323.726562 213.699219 319.011719 205.96875 315.4375 200.988281 C 315.859375 204.167969 316 209.042969 314.242188 214.4375 C 312.285156 220.316406 308.984375 223.933594 308.21875 224.8125 C 303.628906 230.175781 297.359375 247.5625 289.367188 296.472656 C 288.21875 294.335938 286.335938 291.167969 283.226562 287.996094 C 280.222656 284.695312 278.042969 283.601562 274.984375 281.132812 Z M 274.984375 281.132812 " fill-opacity="1" fill-rule="nonzero"/></g></g></g><g clip-path="url(#7d4bf1e7b5)"><g clip-path="url(#ec3bdbd3b0)"><g clip-path="url(#73bc80434c)"><path fill="#000000" d="M 509.457031 341.828125 C 512.894531 350.285156 511.367188 358.320312 504.695312 367.191406 C 504.277344 367.925781 503.917969 368.433594 503.46875 368.804688 C 501.515625 370.476562 496.273438 375.882812 489.726562 382.757812 C 476.304688 396.613281 457.988281 415.664062 449.632812 421.625 C 447.105469 423.457031 444.507812 425.332031 441.8125 427.363281 C 434.339844 432.882812 426.515625 438.617188 418.335938 443.613281 C 401.695312 453.769531 387.472656 458.132812 373.769531 457.382812 C 361.019531 456.621094 347.664062 455.179688 336.875 449.289062 C 326.167969 443.542969 318.742188 433.582031 311.535156 423.972656 C 310.910156 423.109375 310.285156 422.242188 309.589844 421.417969 C 297.328125 405.105469 286.011719 389.554688 275.203125 373.890625 C 271.535156 384.859375 266.09375 395.285156 260.890625 405.464844 L 260.324219 406.582031 C 258.46875 410.304688 256.476562 414.109375 254.664062 417.902344 C 253.890625 419.625 253.046875 421.386719 252.203125 423.148438 C 250.433594 427.011719 248.445312 431.296875 246.144531 435.386719 C 244.511719 438.6875 242.445312 442.0625 239.859375 445.847656 C 239.488281 446.648438 239.042969 447.496094 238.585938 448.160156 C 237.480469 450.753906 235.902344 453.347656 234.0625 455.527344 C 232.15625 457.746094 230.007812 459.730469 227.769531 461.097656 C 227.070312 461.523438 226.441406 461.90625 225.839844 462.179688 C 219.863281 464.964844 213.496094 464.4375 208.65625 463.742188 C 204.867188 464.136719 200.441406 463.960938 195.40625 463.097656 C 182.402344 461.917969 169.175781 458.957031 156.355469 456.035156 L 150.359375 454.707031 C 135.667969 451.390625 120.457031 448.007812 106.074219 442.679688 C 97.382812 441.652344 88.558594 435.523438 83.644531 427.007812 L 83.601562 426.9375 C 77.542969 418.738281 72.304688 409.84375 67.195312 401.15625 C 65.515625 398.25 63.765625 395.382812 62.085938 392.472656 C 58.671875 386.878906 55 380.867188 50.519531 373.527344 C 49.539062 371.917969 48.402344 370.214844 47.433594 368.789062 L 47.390625 368.71875 C 45.203125 365.449219 42.972656 362.109375 41.34375 358.496094 C 39.015625 355.308594 37.675781 350.753906 37.898438 346.875 C 38.035156 344.585938 38.992188 342.851562 39.945312 341.113281 C 40.558594 340.070312 41.167969 339.027344 41.707031 338.023438 L 42.191406 337.25 C 42.441406 336.714844 42.734375 336.246094 43.023438 335.78125 C 43.078125 335.554688 43.132812 335.332031 43.144531 335.035156 C 43.378906 334.316406 43.808594 333.765625 44.371094 333.425781 L 44.4375 333.382812 L 44.507812 333.339844 L 44.773438 332.988281 C 44.941406 332.789062 45.039062 332.632812 45.136719 332.476562 C 50.703125 320.058594 57.84375 308.023438 64.695312 296.449219 L 66.039062 294.09375 C 67.136719 292.273438 68.160156 290.496094 69.1875 288.71875 C 72.53125 283.03125 75.699219 277.066406 78.816406 271.324219 L 78.84375 271.210938 C 84.566406 260.617188 90.480469 249.714844 97.386719 239.644531 C 98.464844 235.4375 100.867188 232.144531 104.574219 229.882812 C 113.453125 224.460938 127.414062 226.113281 135.039062 227.597656 C 147.421875 228.390625 159.71875 230.769531 171.539062 233.148438 L 171.761719 233.203125 C 174.042969 233.636719 176.25 234.109375 178.53125 234.542969 C 190.417969 236.882812 202.414062 238.773438 214.75 240.742188 C 215.832031 240.945312 216.917969 241.148438 218.042969 241.417969 L 218.226562 241.40625 C 218.746094 241.472656 219.222656 241.46875 219.742188 241.535156 L 220.21875 241.53125 L 220.628906 241.570312 C 221.105469 241.566406 221.625 241.632812 222.105469 241.628906 L 222.285156 241.613281 C 225.457031 240.828125 230.03125 242.355469 232.414062 243.585938 C 234.800781 244.816406 236.484375 246.476562 237.511719 248.632812 C 238.839844 249.550781 239.820312 251.15625 240.503906 252.277344 L 240.546875 252.347656 C 240.757812 252.695312 240.886719 252.90625 241.015625 253.113281 L 241.425781 253.632812 C 243.0625 255.992188 244.933594 258.589844 246.390625 261.445312 C 250.066406 266.6875 253.203125 272.449219 256.320312 278.03125 L 256.535156 278.378906 C 258.613281 282.101562 260.4375 285.402344 262.359375 288.550781 C 262.871094 289.386719 263.339844 290.15625 263.894531 291.066406 C 269.597656 285.472656 275.542969 280.59375 280.320312 276.625 L 280.457031 276.539062 C 281.589844 275.5625 282.691406 274.695312 283.65625 273.917969 C 296.21875 263.371094 311.125 251.007812 326.195312 239.21875 C 334.574219 232.664062 342.03125 226.957031 349.058594 221.804688 C 349.503906 221.4375 349.992188 221.136719 350.441406 220.769531 C 352.339844 219.324219 354.421875 217.859375 356.519531 216.578125 C 360.785156 213.976562 364.511719 212.851562 368.234375 212.976562 C 368.53125 212.988281 368.824219 213 369.09375 213.125 C 379.835938 208.871094 391.261719 213.125 400.488281 216.609375 C 406.828125 218.976562 413.328125 221.917969 419.898438 225.296875 C 420.859375 225.765625 421.859375 226.308594 422.886719 226.734375 C 427.328125 228.820312 431.855469 231.050781 434.890625 234.761719 C 443 240.65625 448.570312 249.15625 453.929688 257.304688 C 454.9375 258.800781 455.902344 260.226562 456.914062 261.71875 C 465.480469 274.339844 474.6875 288.007812 483.867188 301.789062 C 486.3125 305.480469 489.007812 309.113281 491.804688 313.066406 C 498.421875 322.175781 505.40625 331.730469 509.457031 341.828125 Z M 509.457031 341.828125 " fill-opacity="1" fill-rule="nonzero"/></g></g></g><g clip-path="url(#85bb15eb07)"><g clip-path="url(#f8edf72c31)"><g clip-path="url(#45a7a44acf)"><path fill="#ffffff" d="M 217.347656 260.558594 C 218.238281 259.820312 218.78125 259.296875 219.371094 258.84375 C 219.539062 259.121094 219.894531 259.386719 220.132812 259.625 C 220.59375 258.960938 220.9375 258.269531 221.398438 257.605469 L 221.46875 257.5625 L 221.496094 257.449219 C 221.671875 256.957031 221.878906 256.351562 222.085938 255.746094 C 221.664062 255.523438 221.238281 255.304688 220.660156 254.984375 C 221.429688 254.515625 221.972656 253.992188 222.464844 253.691406 C 222.488281 253.578125 222.40625 253.441406 222.433594 253.328125 C 222.582031 250.742188 219.730469 247.488281 195.507812 244.90625 C 193.582031 244.738281 191.910156 244.511719 190.9375 244.339844 C 183.035156 243.023438 174.957031 241.425781 167.851562 240.003906 L 165.757812 239.558594 C 164.96875 239.367188 164.152344 239.289062 163.363281 239.097656 C 163.363281 239.097656 163.363281 239.097656 163.253906 239.070312 C 148.902344 236.316406 133.660156 234.296875 116.863281 233.035156 L 116.75 233.007812 L 116.679688 233.050781 C 113.382812 233.621094 110.636719 234.625 108.191406 236.121094 C 105.882812 237.527344 103.945312 239.382812 102.332031 241.617188 L 102.261719 241.65625 L 102.191406 241.699219 C 97.667969 250.796875 92.355469 259.699219 87.195312 268.226562 L 87.027344 268.421875 C 82.839844 275.394531 78.066406 283.296875 73.953125 291.183594 C 71.421875 295.992188 68.972656 300.941406 66.453125 305.933594 C 61.167969 316.453125 55.257812 328.3125 48.554688 339.027344 L 48.265625 339.492188 L 48.519531 339.910156 C 49.203125 341.03125 50.292969 342.1875 51.550781 343.148438 L 51.792969 343.382812 L 52.085938 343.394531 C 56.300781 343.222656 60.53125 343.710938 64.246094 344.132812 L 64.835938 344.15625 C 66.171875 344.300781 67.4375 344.488281 68.730469 344.5625 C 76.136719 345.222656 83.84375 346.371094 92.328125 348.003906 L 92.398438 347.964844 L 92.46875 347.921875 C 107.757812 348.757812 123.023438 351.914062 136.507812 357.023438 L 136.621094 357.050781 L 136.730469 357.078125 C 139.488281 357.507812 142.332031 358.074219 145.636719 358.933594 L 145.75 358.960938 C 145.976562 359.015625 146.203125 359.070312 146.355469 359.167969 L 146.851562 359.347656 L 147.414062 359.484375 C 148.046875 359.578125 148.722656 359.742188 149.425781 359.792969 C 153.488281 360.476562 158.226562 360.847656 162.1875 359.003906 C 162.1875 359.003906 162.398438 358.878906 162.398438 358.878906 L 162.46875 358.835938 C 164.335938 357.023438 165.863281 354.652344 167.363281 352.390625 L 168.140625 351.148438 C 168.625 350.371094 169.152344 349.667969 169.683594 348.960938 L 169.753906 348.917969 L 169.78125 348.804688 C 173.554688 339.109375 178.835938 329.839844 184.21875 320.894531 C 183.710938 320.53125 183.074219 319.960938 181.972656 319.097656 C 183.566406 318.414062 184.574219 317.703125 185.625 317.539062 C 185.808594 317.523438 185.964844 317.621094 186.046875 317.761719 C 187.046875 316.097656 188.019531 314.542969 189.019531 312.878906 L 189.890625 311.480469 C 191.738281 308.53125 193.636719 305.355469 195.371094 302.378906 C 200.296875 294.09375 205.398438 285.316406 210.902344 275.625 C 211.953125 273.734375 213.007812 271.84375 214.042969 269.769531 L 214.390625 269.078125 C 215.621094 266.695312 216.953125 264.15625 218.394531 261.644531 C 218.421875 261.535156 217.980469 261.128906 217.347656 260.558594 Z M 102.28125 260.550781 C 102.527344 260.015625 102.820312 259.550781 103.140625 258.972656 C 100.976562 255.589844 101.410156 251.582031 103.296875 248.222656 C 102.742188 247.316406 102.117188 246.449219 101.769531 245.414062 C 101.671875 245.089844 102.71875 244.449219 103.261719 243.925781 C 103.828125 244.539062 104.351562 245.082031 105.003906 245.835938 C 106.410156 244.210938 108.242188 242.804688 110.1875 241.90625 C 111.960938 240.726562 114.105469 239.996094 116.296875 239.808594 C 122.214844 238.5 128.492188 240.136719 130.234375 245.980469 C 131.695312 251.042969 128.835938 255.953125 124.535156 258.964844 C 119.617188 264.269531 110.554688 266.25 104.964844 261.023438 C 104.546875 261.28125 104.128906 261.535156 103.664062 261.722656 C 103.429688 261.960938 102.183594 260.707031 102.28125 260.550781 Z M 141.476562 297.5625 C 141.546875 298 140.78125 298.46875 140.347656 299.019531 C 139.824219 298.476562 139.046875 297.988281 138.777344 297.386719 C 138.675781 297.066406 139.316406 296.386719 139.925781 295.34375 C 140.636719 296.347656 141.34375 296.875 141.476562 297.5625 Z M 129.664062 310.914062 C 128.753906 311.46875 127.777344 312.066406 126.824219 312.550781 C 126.617188 312.679688 126.246094 312.234375 125.445312 311.859375 C 126.773438 311.050781 127.75 310.453125 128.703125 309.96875 C 128.84375 309.882812 129.339844 310.539062 129.664062 310.914062 Z M 88.195312 331.335938 C 82.804688 337.121094 71.863281 341.207031 65.214844 335.191406 C 63.066406 333.242188 62.003906 330.242188 62.078125 327.222656 C 61.828125 325.550781 61.855469 323.710938 62.386719 321.753906 C 64.722656 312.84375 77.0625 307.902344 85.15625 311.886719 C 92.796875 315.761719 93.851562 325.195312 88.195312 331.335938 Z M 95.4375 326.53125 C 94.914062 325.988281 95.167969 324.679688 95.09375 323.765625 C 95.933594 325.460938 96.734375 327.082031 96.792969 327.335938 C 97.550781 327.636719 96.203125 327.3125 95.4375 326.53125 Z M 98.558594 303.035156 C 89.859375 306.230469 79.230469 301.398438 80.121094 291.066406 C 80.378906 288.027344 81.859375 285.109375 84.003906 282.648438 C 84.074219 282.605469 84.074219 282.605469 84.101562 282.492188 C 88.667969 277.402344 96.089844 274.308594 102.132812 276.1875 C 108.777344 278.273438 112.023438 285.792969 109.285156 291.207031 C 109.121094 291.882812 108.847656 292.53125 108.457031 293.152344 C 108.429688 293.265625 108.289062 293.351562 108.261719 293.460938 C 106.511719 297.984375 103.011719 301.371094 98.558594 303.035156 Z M 169.054688 331.109375 C 171.816406 339.40625 165.054688 346.410156 158.511719 350.308594 C 151.757812 354.335938 143.546875 353.78125 139.488281 346.183594 C 135.636719 338.9375 143.175781 332.417969 148.527344 328.765625 C 149.085938 328.425781 149.703125 328.335938 150.222656 328.402344 C 150.808594 327.949219 151.507812 327.523438 152.070312 327.179688 C 158.226562 323.902344 166.378906 322.953125 169.054688 331.109375 Z M 157.171875 313.21875 C 156.964844 313.347656 156.199219 312.566406 155.183594 311.84375 C 156.371094 311.117188 157.097656 310.578125 157.855469 310.40625 C 158.175781 310.304688 158.6875 311.144531 159.128906 311.546875 C 158.515625 312.113281 157.914062 312.863281 157.171875 313.21875 Z M 136.300781 267.710938 C 138.246094 268.539062 140.078125 269.339844 142.023438 270.167969 C 141.410156 270.734375 140.683594 271.273438 139.625 272.207031 C 138.207031 270.671875 136.960938 269.417969 135.714844 268.164062 C 135.996094 267.992188 136.257812 267.640625 136.300781 267.710938 Z M 152.171875 294.488281 C 152.042969 294.28125 153.113281 293.050781 153.382812 293.175781 C 154.707031 293.613281 155.976562 294.277344 157.273438 294.832031 C 156.292969 295.429688 155.425781 296.050781 153.957031 296.949219 C 153.292969 296.011719 152.5 295.34375 152.171875 294.488281 Z M 180.425781 322.539062 C 179.832031 322.515625 179.195312 321.945312 177.96875 321.347656 C 179.203125 320.695312 179.816406 320.125 180.40625 320.152344 C 180.925781 320.214844 181.394531 320.984375 181.875 321.460938 C 181.429688 321.828125 180.972656 322.492188 180.425781 322.539062 Z M 186.378906 300.382812 C 183.019531 307.613281 174.410156 313.160156 166.292969 311.492188 C 156.753906 309.542969 156.9375 298.683594 163.203125 293.226562 C 166.074219 288.496094 171.511719 284.988281 176.886719 284.199219 C 186.652344 282.75 189.960938 292.726562 186.378906 300.382812 Z M 202.117188 269.566406 C 201.808594 269.851562 201.503906 270.132812 201.082031 270.390625 C 198.105469 274.316406 193.550781 277.386719 188.59375 277.4375 C 182.609375 277.539062 177.699219 272.957031 176.769531 267.191406 C 176.414062 264.71875 176.847656 262.441406 177.953125 260.324219 C 177.648438 260.609375 177.296875 260.820312 176.949219 261.035156 C 176.738281 261.164062 176.128906 260.480469 175.113281 259.757812 C 176.34375 259.101562 177.070312 258.5625 177.828125 258.386719 C 178.007812 258.371094 178.335938 258.75 178.660156 259.125 C 181.660156 254.609375 187.648438 251.527344 193.253906 251.273438 C 194.054688 251.167969 194.851562 251.066406 195.582031 251.003906 C 197.605469 251.015625 199.367188 251.859375 200.753906 253.027344 C 201.21875 253.320312 201.644531 253.542969 202.039062 253.875 C 206.902344 257.914062 206.285156 265.390625 202.117188 269.566406 Z M 443.289062 313.605469 C 438.011719 306.847656 431.429688 298.582031 428.570312 293.894531 L 428.527344 293.824219 L 428.484375 293.757812 C 414.503906 276.667969 399.621094 257.636719 397.71875 254.671875 C 395.289062 251.164062 393.085938 248.1875 390.902344 245.394531 C 389.542969 243.636719 388.222656 241.945312 386.789062 240.230469 C 384.988281 238.066406 383.214844 235.789062 381.554688 233.539062 C 381.144531 233.023438 380.691406 232.4375 380.152344 231.710938 C 378.121094 229.015625 375.125 224.894531 371.949219 222.992188 C 368.929688 221.191406 365.480469 222.144531 363.902344 223.011719 L 363.761719 223.097656 C 360.535156 225.355469 357.191406 227.585938 354.035156 229.804688 C 348.054688 233.839844 341.90625 238.070312 336.066406 242.5 C 326.988281 249.480469 317.871094 256.867188 309.132812 263.929688 C 306.617188 265.945312 304.246094 267.875 301.800781 269.84375 L 299.804688 271.449219 C 289.097656 280 278.011719 288.878906 268.027344 298.621094 C 267.886719 298.707031 267.789062 298.859375 267.621094 299.058594 C 266.910156 299.78125 266.226562 300.390625 265.515625 301.113281 C 264.972656 301.636719 264.5 302.117188 263.996094 302.710938 C 263.691406 302.992188 263.496094 303.304688 263.1875 303.585938 C 253.800781 313.832031 247.539062 325.425781 257.476562 337.304688 C 257.84375 337.75 258.03125 338.214844 258.035156 338.691406 L 258.023438 338.984375 L 258.152344 339.195312 C 258.648438 339.851562 259.214844 340.464844 259.710938 341.121094 C 263.027344 345.144531 266.347656 349.164062 269.621094 353.113281 C 271.054688 354.832031 272.457031 356.660156 273.890625 358.375 C 274.175781 358.683594 274.386719 359.035156 274.714844 359.410156 C 275.253906 360.136719 275.863281 360.820312 276.402344 361.546875 C 277.097656 362.371094 277.722656 363.238281 278.414062 364.058594 C 289.480469 377.9375 299.851562 391.472656 309.761719 405.191406 C 311.550781 407.648438 313.355469 410.292969 315.117188 412.863281 C 320.769531 421.023438 326.550781 429.394531 333.792969 435.914062 L 334.144531 436.175781 L 334.609375 435.992188 C 344.277344 432.96875 353.792969 429.847656 362.8125 424.339844 C 363.230469 424.085938 363.71875 423.785156 364.140625 423.53125 C 372.75 417.984375 420.207031 381.4375 443.433594 356.605469 C 442.417969 355.882812 441.640625 355.394531 440.890625 354.796875 C 442.570312 353.773438 444.0625 352.285156 445.828125 351.878906 C 446.265625 351.804688 446.828125 351.941406 447.335938 352.304688 C 452.960938 345.800781 456.402344 340.433594 456.308594 337.132812 L 456.335938 337.019531 L 456.292969 336.953125 C 455.109375 332.972656 453.601562 328.613281 450.742188 323.929688 C 450.039062 322.152344 446.949219 318.183594 443.289062 313.605469 Z M 353.789062 232.542969 C 354.246094 231.878906 354.972656 231.339844 355.585938 230.773438 C 356 231.292969 356.816406 231.847656 356.667969 232.226562 C 356.503906 232.902344 355.847656 233.398438 355.125 234.417969 C 354.457031 233.480469 353.691406 232.699219 353.789062 232.542969 Z M 305.996094 304.230469 C 306.945312 304.996094 307.582031 305.566406 308.21875 306.136719 C 306.859375 306.582031 305.515625 307.210938 304.183594 307.546875 C 303.929688 307.601562 303.460938 306.835938 303.066406 306.5 C 303.957031 305.761719 304.894531 305.09375 305.996094 304.230469 Z M 294.214844 345.296875 C 291.464844 345.347656 288.929688 344.496094 286.667969 342.996094 C 285.738281 342.414062 284.902344 341.675781 284.140625 340.894531 C 283.332031 340.042969 282.550781 339.078125 281.910156 338.03125 C 281.441406 337.261719 281 336.378906 280.671875 335.527344 C 280.441406 334.992188 280.28125 334.417969 280.125 333.84375 C 279.890625 332.835938 279.726562 331.78125 279.707031 330.644531 C 279.605469 330.320312 279.617188 330.027344 279.558594 329.773438 C 279.453125 328.972656 279.347656 328.175781 279.359375 327.402344 C 279.308594 326.375 279.441406 325.335938 279.574219 324.296875 C 279.800781 323.101562 280.171875 321.820312 280.808594 320.660156 C 281.375 319.546875 282.03125 318.574219 282.976562 317.609375 C 288.035156 312.21875 295.988281 312.355469 301.789062 316.203125 C 305.988281 317.574219 309.585938 321.425781 310.824219 325.660156 C 313.148438 333.550781 309.097656 342.164062 301.152344 344.710938 C 298.894531 345.417969 296.707031 345.601562 294.625 345.335938 C 294.511719 345.308594 294.398438 345.28125 294.214844 345.296875 Z M 364.195312 392.019531 C 364.21875 393.15625 364.128906 394.269531 363.96875 395.421875 C 363.945312 398.21875 363.308594 401.101562 361.9375 403.570312 C 357.683594 411.539062 347.925781 413.945312 340.03125 410.128906 C 335.082031 407.679688 331 402.878906 329.621094 397.480469 C 327.882812 390.386719 330.78125 383.820312 336.480469 379.476562 C 341.144531 375.957031 347.78125 374.878906 353.25 376.917969 C 359.628906 379.355469 363.875 385.210938 364.195312 392.019531 Z M 319.378906 310.746094 C 318.925781 311.886719 318.355469 313 317.789062 314.113281 C 317.222656 313.5 316.769531 312.914062 315.832031 311.851562 C 316.894531 310.917969 317.648438 310.265625 318.515625 309.640625 C 318.515625 309.640625 319.503906 310.476562 319.378906 310.746094 Z M 367.878906 329.984375 C 370.199219 337.875 366.152344 346.488281 358.203125 349.039062 C 355.949219 349.742188 353.757812 349.929688 351.675781 349.664062 C 351.566406 349.636719 351.425781 349.722656 351.3125 349.695312 C 344.625 349.746094 338.925781 344.492188 337.332031 338.265625 C 337.097656 337.257812 336.9375 336.207031 336.914062 335.066406 C 335.9375 330.480469 336.675781 325.714844 340.074219 322.007812 C 345.132812 316.617188 353.082031 316.753906 358.886719 320.597656 C 363.039062 321.902344 366.636719 325.75 367.878906 329.984375 Z M 346.757812 273.6875 C 346.523438 272.679688 346.359375 271.625 346.339844 270.488281 C 345.363281 265.902344 346.097656 261.132812 349.496094 257.425781 C 354.554688 252.035156 362.507812 252.171875 368.3125 256.019531 C 372.507812 257.390625 376.105469 261.242188 377.347656 265.476562 C 379.667969 273.367188 375.617188 281.980469 367.671875 284.527344 C 365.414062 285.234375 363.226562 285.417969 361.144531 285.152344 C 361.03125 285.125 360.890625 285.210938 360.78125 285.183594 C 353.980469 285.207031 348.277344 279.957031 346.757812 273.6875 Z M 407.867188 353.363281 C 400.734375 351.578125 395.96875 345.660156 394.242188 338.746094 C 392.15625 330.613281 395.738281 322.957031 403.679688 319.933594 C 406.242188 318.945312 409.277344 318.726562 412.171875 319.070312 C 416.484375 318.742188 420.890625 319.984375 424.414062 323.398438 C 427.171875 326.035156 428.984375 329.628906 429.742188 333.390625 C 429.757812 333.570312 429.84375 333.710938 429.816406 333.824219 C 430.59375 338.242188 429.816406 342.941406 427.191406 346.65625 C 422.835938 352.574219 415.003906 355.148438 407.867188 353.363281 Z M 435.085938 350.472656 C 434.691406 350.617188 434.015625 349.976562 432.703125 349.242188 C 435.011719 348.308594 436.496094 347.597656 438.039062 347.136719 C 438.359375 347.035156 438.941406 347.832031 439.382812 348.234375 C 437.941406 349.019531 436.613281 349.828125 435.085938 350.472656 Z M 437.355469 342.5625 C 437.457031 342.882812 436.660156 343.464844 436.105469 344.285156 C 435.410156 343.460938 434.59375 342.90625 434.589844 342.425781 C 434.65625 341.90625 435.382812 341.367188 435.855469 340.886719 C 436.378906 341.429688 437.042969 341.890625 437.355469 342.5625 Z M 437.355469 342.5625 " fill-opacity="1" fill-rule="nonzero"/></g></g></g><g clip-path="url(#962f0680ae)"><g clip-path="url(#2f769b9ebf)"><g clip-path="url(#154b951891)"><path fill="#ce4b33" d="M 183.652344 399.355469 C 178.507812 391.554688 173.191406 383.476562 169.09375 375.039062 L 168.96875 374.828125 L 168.699219 374.703125 C 162.507812 371.476562 156.351562 369.09375 151.039062 367.152344 L 150.8125 367.097656 C 144.050781 366.238281 137.753906 363.941406 133.664062 362.117188 L 133.554688 362.089844 L 133.441406 362.0625 C 120.152344 360.578125 106.421875 357.730469 92.609375 353.496094 L 92.382812 353.441406 C 84.101562 352.453125 75.921875 351.785156 68.09375 351.378906 C 65.621094 351.257812 63.09375 351.363281 60.632812 351.421875 L 60.589844 351.351562 C 57.949219 351.429688 55.308594 351.503906 52.65625 351.398438 L 52.359375 351.386719 L 52.078125 351.558594 C 49.96875 353.132812 48.773438 354.632812 48.140625 356.265625 L 47.988281 356.648438 L 48.203125 356.996094 C 50.078125 359.59375 51.730469 362.617188 53.125 365.21875 C 53.953125 366.730469 54.949219 368.519531 55.929688 370.128906 C 59.898438 376.628906 63.699219 382.851562 67.496094 389.074219 C 68.734375 391.101562 70.042969 393.085938 71.277344 395.113281 L 72.886719 397.589844 C 77.890625 405.472656 83.023438 413.566406 87.328125 421.878906 L 87.414062 422.019531 C 90.453125 426.210938 93.355469 429.238281 96.605469 431.570312 C 99.191406 433.449219 102.007812 434.605469 104.289062 435.515625 L 104.332031 435.585938 L 104.445312 435.613281 C 113.394531 437.539062 122.503906 440.042969 130.554688 442.226562 L 131.230469 442.390625 C 138.15625 444.304688 145.265625 446.203125 152.203125 447.820312 C 159.253906 449.46875 166.722656 450.859375 173.335938 452.097656 C 182.226562 453.773438 191.300781 455.433594 200.097656 457.738281 L 200.210938 457.765625 L 200.617188 457.804688 C 201.320312 457.855469 201.910156 457.878906 202.5 457.902344 C 202.980469 457.898438 203.570312 457.921875 204.203125 458.015625 C 206.902344 458.191406 209.625 458.257812 211.039062 457.585938 C 211.25 457.457031 211.460938 457.328125 211.597656 457.242188 C 214.117188 455.707031 213.84375 453.378906 213.230469 450.011719 C 213.140625 449.394531 213.007812 448.707031 212.878906 448.019531 C 212.878906 448.019531 212.835938 447.949219 212.863281 447.835938 L 212.890625 447.722656 C 212.890625 447.722656 212.746094 447.332031 212.703125 447.261719 L 212.617188 447.121094 C 210.066406 443.882812 208 440.34375 206.09375 436.902344 C 200.609375 427.292969 196.507812 420.105469 192.695312 413.699219 C 189.992188 409.113281 186.949219 404.445312 183.964844 400.027344 Z M 83.847656 376.40625 C 83.796875 377.109375 83.636719 377.785156 83.246094 378.40625 C 81.691406 380.890625 77.898438 380.804688 75.476562 379.980469 C 75.207031 379.855469 74.941406 379.730469 74.601562 379.652344 C 74.265625 379.570312 74.039062 379.515625 73.773438 379.390625 C 68.136719 377.550781 56.894531 369.347656 60.703125 362.226562 C 65.175781 353.832031 75.71875 360.257812 79.523438 365.707031 C 79.566406 365.777344 79.566406 365.777344 79.609375 365.84375 C 80.21875 366.527344 80.84375 367.394531 81.441406 368.375 C 83.625 371.167969 84.871094 374.148438 83.847656 376.40625 Z M 125.648438 417.679688 C 126.085938 418.085938 126.480469 418.417969 126.949219 418.710938 C 126.480469 418.417969 126.042969 418.015625 125.648438 417.679688 Z M 142.429688 413.578125 C 144.3125 418.859375 141.859375 425.058594 135.359375 423.84375 C 133.824219 423.53125 131.160156 421.992188 128.289062 419.808594 C 128.515625 419.863281 128.742188 419.917969 128.898438 420.015625 C 129.363281 418.582031 129.667969 417.820312 129.925781 416.988281 C 128.441406 417.222656 126.980469 417.347656 125.492188 417.585938 C 120.175781 412.960938 115.097656 406.847656 116.390625 402.988281 C 116.4375 401.808594 116.890625 400.667969 118.136719 399.714844 C 122.546875 396.253906 129.765625 401.15625 133.242188 404.023438 C 137.371094 405.917969 140.964844 409.289062 142.429688 413.578125 Z M 199.101562 439.441406 C 199.503906 440.730469 199.5 441.980469 199.15625 443.152344 C 198.878906 445.050781 197.738281 446.800781 195.402344 447.84375 C 191.230469 449.8125 186.839844 447.023438 183.292969 444.199219 C 180.0625 442.523438 177.207031 440.046875 175.566406 437.207031 C 175.183594 436.578125 175.023438 436 174.867188 435.425781 C 174.867188 435.425781 174.824219 435.355469 174.824219 435.355469 C 174.765625 435.105469 174.664062 434.78125 174.71875 434.558594 C 173.496094 430.507812 175.582031 426.066406 180.46875 426.054688 C 184.769531 426.023438 189.324219 428.617188 192.847656 431.554688 C 195.785156 433.695312 198.152344 436.472656 199.101562 439.441406 Z M 494.398438 334.132812 L 493.558594 332.917969 L 493.386719 332.636719 C 492.945312 331.753906 490.6875 328.527344 488.285156 324.90625 C 489.6875 331.921875 477.15625 322.394531 472.671875 312.847656 C 467.203125 301.214844 472.253906 303.984375 477.699219 309.296875 L 477.273438 308.597656 L 477.1875 308.457031 C 477.105469 308.316406 477.019531 308.179688 476.933594 308.039062 C 476.804688 307.828125 476.71875 307.6875 476.5625 307.589844 C 473.539062 303.105469 470.171875 298.058594 466.546875 292.59375 C 466.28125 292.949219 465.878906 293.386719 465.472656 293.824219 C 464.609375 292.722656 464.113281 292.066406 463.613281 291.410156 C 464.0625 291.039062 464.578125 290.628906 465.023438 290.261719 C 460.007812 282.671875 454.539062 274.496094 449.136719 266.273438 C 447.402344 263.589844 445.738281 260.863281 443.945312 257.929688 C 441.511719 253.945312 439.066406 249.777344 436.351562 245.960938 C 434.476562 243.363281 431.808594 241.347656 428.566406 239.964844 C 426.820312 239.304688 425.222656 238.265625 423.488281 237.308594 C 422.710938 236.820312 421.9375 236.335938 421.089844 235.894531 C 416.066406 233.011719 410.917969 230.394531 405.871094 228.101562 C 404.6875 227.574219 403.460938 226.980469 402.234375 226.386719 C 395.652344 223.304688 388.179688 219.707031 380.792969 218.457031 L 379.078125 218.164062 L 379.902344 219.671875 C 380.945312 221.535156 381.941406 223.324219 382.9375 225.113281 C 384.632812 228.207031 386.328125 231.296875 388.164062 234.304688 C 390.980469 238.917969 393.980469 243.519531 396.4375 247.390625 C 398.597656 250.296875 400.613281 253.285156 402.460938 255.996094 C 404.804688 259.367188 411.867188 268.105469 420.105469 278.144531 C 423.097656 281.785156 426.175781 285.570312 429.253906 289.351562 L 429.335938 289.492188 L 429.492188 289.589844 C 429.535156 289.660156 429.648438 289.6875 429.648438 289.6875 C 432.40625 292.320312 451.464844 313.796875 454.039062 317.695312 L 454.125 317.835938 C 455.355469 318.90625 456.445312 320.066406 457.535156 321.222656 C 458.953125 322.757812 460.480469 324.320312 462.132812 325.613281 C 464.269531 327.378906 466.554688 328.765625 468.84375 330.15625 C 470.972656 331.445312 473.148438 332.804688 475.039062 334.335938 C 475.082031 334.40625 475.195312 334.433594 475.238281 334.503906 L 475.367188 334.710938 C 475.367188 334.710938 477.113281 335.375 477.875 335.675781 C 478.210938 335.757812 478.480469 335.882812 478.859375 336.035156 C 478.929688 335.992188 479 335.949219 479.113281 335.976562 C 479.367188 335.917969 479.71875 336.183594 480.003906 336.488281 C 481.101562 336.875 482.242188 337.328125 483.339844 337.714844 C 484.707031 338.222656 486.144531 338.691406 487.46875 339.128906 L 487.582031 339.15625 L 487.691406 339.183594 C 487.917969 339.238281 488.101562 339.222656 488.296875 339.390625 C 488.339844 339.460938 488.453125 339.488281 488.453125 339.488281 L 488.496094 339.558594 L 488.652344 339.65625 C 491.496094 340.699219 494.878906 341.996094 498.152344 343.738281 C 498.261719 343.765625 498.304688 343.835938 498.304688 343.835938 L 499.507812 342.816406 C 498.445312 339.816406 496.398438 336.941406 494.398438 334.132812 Z M 421.339844 259.253906 C 422.484375 267.574219 412.484375 260.628906 410.148438 258.214844 C 406.960938 254.882812 404.417969 250.871094 402.167969 246.867188 C 400.742188 244.378906 398.449219 240.308594 399.410156 237.324219 C 400.246094 234.605469 402.074219 234.929688 404.109375 236.375 C 404.460938 236.160156 405.007812 236.113281 405.402344 236.449219 C 409.554688 239.480469 412.578125 243.488281 415.25 247.710938 C 417.441406 250.980469 420.816406 255.253906 421.339844 259.253906 Z M 467.652344 312.167969 C 476.652344 329.898438 456.644531 318.503906 451.167969 305.917969 C 445.332031 292.585938 451.917969 295.671875 458.59375 301.574219 C 458.152344 302.898438 457.671875 304.152344 457.230469 305.476562 C 458.789062 305.199219 460.277344 304.960938 461.835938 304.683594 C 464.382812 307.445312 466.679688 310.265625 467.652344 312.167969 Z M 458.566406 301.6875 C 459.046875 302.160156 459.597656 302.59375 460.121094 303.136719 C 459.597656 302.59375 459.117188 302.121094 458.566406 301.6875 Z M 441.871094 267.734375 C 438.980469 271.804688 434.085938 265.675781 432.285156 263.511719 C 428.445312 258.945312 423.863281 253.011719 423.5625 246.859375 C 423.558594 246.382812 423.933594 246.054688 424.414062 246.050781 C 429.867188 244.929688 434.730469 250.695312 437.808594 254.476562 C 440.078125 257.410156 444.691406 263.710938 441.871094 267.734375 Z M 83.1875 284.296875 C 83.171875 284.117188 83.15625 283.933594 83.183594 283.820312 C 83.449219 283.46875 83.78125 283.070312 84.046875 282.71875 C 84.117188 282.675781 84.117188 282.675781 84.144531 282.5625 C 84.40625 282.210938 84.785156 281.882812 85.117188 281.488281 C 85.429688 281.683594 85.628906 281.847656 85.644531 282.03125 C 85.609375 282.917969 84.910156 283.820312 84.355469 284.640625 C 84.148438 284.769531 83.203125 284.480469 83.1875 284.296875 Z M 192.703125 263.894531 C 192.179688 265.078125 191.695312 266.332031 191.003906 267.714844 C 189.964844 267.582031 189.261719 267.53125 188.628906 267.4375 C 189.039062 266.226562 189.183594 264.890625 189.949219 263.941406 C 190.3125 263.433594 191.746094 263.902344 192.703125 263.894531 Z M 190.59375 440.125 C 190.386719 440.730469 190.308594 441.546875 189.890625 441.800781 C 189.402344 442.101562 188.542969 441.953125 187.152344 442.035156 C 187.859375 440.835938 188.121094 440.003906 188.652344 439.773438 C 189.183594 439.546875 189.917969 439.960938 190.59375 440.125 Z M 194.265625 435.292969 C 194.019531 436.304688 193.816406 437.390625 193.417969 438.304688 C 193.320312 438.460938 192.308594 438.214844 189.75 437.953125 C 190.761719 436.472656 191.261719 435.398438 192.082031 434.707031 C 192.433594 434.492188 193.476562 435.101562 194.265625 435.292969 Z M 419.628906 327.664062 C 418.570312 327.351562 417.644531 327.246094 417.386719 326.824219 C 417.132812 326.40625 417.53125 325.488281 417.695312 324.8125 C 418.414062 325.046875 419.296875 325.082031 419.851562 325.515625 C 420.089844 325.75 419.691406 326.667969 419.628906 327.664062 Z M 424.515625 329.382812 C 423.710938 330.738281 422.949219 332.164062 422.03125 333.492188 C 421.835938 333.800781 420.867188 333.625 419.363281 333.679688 C 420.808594 331.644531 421.726562 330.316406 422.800781 329.085938 C 422.992188 328.777344 423.953125 329.246094 424.515625 329.382812 Z M 398.890625 331.109375 C 399.667969 331.597656 400.511719 332.039062 402.644531 333.328125 C 402.242188 333.769531 401.726562 334.65625 401.011719 334.902344 C 400.621094 335.042969 399.4375 334.519531 399.25 334.058594 C 398.921875 333.203125 399.011719 332.09375 398.890625 331.109375 Z M 429.699219 333.320312 C 429.714844 333.503906 429.800781 333.640625 429.773438 333.753906 C 429.773438 333.753906 429.816406 333.824219 429.746094 333.867188 C 429.632812 333.839844 429.523438 333.8125 429.339844 333.828125 C 429.550781 333.699219 429.601562 333.476562 429.699219 333.320312 Z M 454.242188 298.378906 C 454.148438 299.011719 454.097656 299.714844 453.964844 300.753906 C 453.023438 300.464844 451.980469 300.332031 451.921875 300.082031 C 451.765625 299.507812 452.050781 298.5625 452.429688 298.238281 C 452.804688 297.910156 453.609375 298.285156 454.242188 298.378906 Z M 456.070312 311.273438 C 456.046875 311.863281 455.992188 312.566406 455.902344 313.199219 C 455.292969 312.515625 454.710938 311.71875 454.171875 310.992188 C 454.238281 310.949219 454.238281 310.949219 454.265625 310.839844 C 454.433594 310.640625 456.097656 311.160156 456.070312 311.273438 Z M 456.070312 311.273438 " fill-opacity="1" fill-rule="nonzero"/></g></g></g><g clip-path="url(#9ee7cfb35a)"><g clip-path="url(#e2be9dd3f9)"><g clip-path="url(#1fb72f7740)"><path fill="#f89537" d="M 237.652344 261.597656 L 237.480469 261.316406 C 236.347656 260.089844 235.019531 258.695312 233.660156 257.414062 L 233.375 257.105469 L 232.941406 257.179688 C 231.820312 257.386719 230.613281 257.929688 229.285156 258.738281 C 227.957031 259.550781 226.925781 260.371094 226.449219 260.855469 L 226.3125 260.9375 L 226.214844 261.09375 C 224.242188 266.039062 221.597656 270.824219 219.046875 275.449219 L 218.507812 276.453125 C 218.0625 277.296875 217.648438 278.03125 217.203125 278.878906 C 212.855469 287.003906 207.988281 295.0625 203.355469 302.878906 L 202.523438 304.347656 C 200.082031 308.523438 197.527344 312.671875 195.089844 316.847656 L 191.84375 322.382812 C 186.574219 331.355469 182.136719 338.863281 177.628906 346.414062 L 177.558594 346.457031 L 177.183594 347.257812 C 176.964844 347.683594 176.8125 348.0625 176.632812 348.554688 L 176.605469 348.667969 C 175.929688 350.234375 175.28125 351.683594 174.742188 353.164062 L 174.6875 353.390625 C 174.667969 354.457031 174.535156 355.496094 174.402344 356.539062 L 174.339844 357.058594 C 174.054688 360.207031 173.753906 363.171875 174.15625 366.191406 C 174.542969 369.027344 175.644531 371.617188 176.703125 374.136719 L 176.972656 374.738281 L 177.015625 374.808594 C 182.453125 382.140625 187.066406 390.171875 191.480469 398.03125 C 193.375 401.289062 194.941406 404.171875 196.691406 407.039062 C 204.105469 419.5 211.015625 432.074219 216.796875 442.652344 L 216.839844 442.71875 L 216.882812 442.789062 C 217.535156 443.542969 218.089844 444.453125 218.460938 445.378906 L 218.589844 445.585938 L 218.859375 445.710938 C 220.636719 446.738281 222.941406 447.058594 225.171875 446.464844 C 226.503906 446.128906 227.621094 445.449219 228.921875 444.75 L 228.992188 444.707031 C 230.042969 444.066406 230.949219 443.511719 232.058594 443.125 L 232.199219 443.039062 L 232.292969 442.882812 C 233.535156 441.453125 234.730469 439.957031 235.910156 438.277344 C 237.300781 435.988281 238.5625 433.972656 239.894531 431.910156 C 242.417969 427.394531 244.683594 422.460938 246.894531 417.753906 L 247.046875 417.371094 C 248.140625 415.074219 249.3125 412.4375 250.433594 410.027344 C 252.09375 406.613281 253.667969 403.0625 255.257812 399.695312 L 255.601562 399.003906 C 259.511719 390.472656 263.503906 381.605469 268.417969 373.617188 L 268.445312 373.507812 L 268.472656 373.394531 C 269.199219 371.125 270.023438 368.703125 270.777344 366.324219 C 264.570312 357.253906 258.628906 348.308594 252.828125 339.277344 C 252.742188 339.136719 252.613281 338.929688 252.597656 338.746094 L 252.539062 338.492188 L 252.34375 338.328125 C 247.433594 333.742188 245.074219 328.464844 245.171875 322.648438 C 245.386719 313.878906 251.410156 304.730469 258.921875 296.597656 C 257.941406 294.988281 257 293.449219 256.0625 291.914062 C 254.097656 288.695312 251.953125 285.496094 249.679688 282.085938 C 245.570312 275.667969 240.867188 268.75 237.652344 261.597656 Z M 188.15625 374.820312 C 183.835938 373.714844 182.898438 368.722656 182.9375 364.859375 C 183.03125 358.566406 187.746094 346.953125 196.039062 349.375 C 200.21875 350.566406 201.816406 355.542969 201.636719 359.492188 C 201.539062 361.375 201.117188 363.359375 200.472656 365.289062 C 200.132812 366.457031 199.71875 367.667969 199.179688 368.667969 C 197.101562 372.335938 192.703125 375.980469 188.15625 374.820312 Z M 235.601562 410.730469 C 237.394531 415.394531 237.59375 421.222656 234.460938 425.054688 C 233.195312 426.59375 231.613281 427.464844 230.015625 427.671875 C 228.292969 428.628906 226.371094 428.9375 224.34375 427.96875 C 221.128906 426.476562 219.878906 423.015625 219.601562 419.730469 C 219.28125 416.375 220.007812 412.382812 221.753906 409.109375 C 222.539062 407.09375 223.789062 405.371094 225.441406 404.457031 C 225.71875 404.289062 225.972656 404.230469 226.269531 404.242188 C 226.335938 404.199219 226.40625 404.15625 226.476562 404.113281 C 226.617188 404.027344 226.6875 403.984375 226.871094 403.96875 C 226.871094 403.96875 226.941406 403.925781 226.941406 403.925781 C 229.179688 403.039062 231.738281 403.300781 233.523438 405.28125 C 234.898438 406.746094 235.433594 408.722656 235.601562 410.730469 Z M 240.710938 352.914062 C 239.699219 356.601562 237.410156 360.398438 234.011719 362.375 C 230.054688 364.695312 225.878906 362.734375 224.5 358.585938 C 223.625 356.050781 223.402344 353.015625 223.816406 350.078125 C 223.5 345.472656 224.855469 340.617188 228.054688 338.46875 C 231.746094 336.027344 236.574219 337.492188 239.003906 341 C 241.277344 344.410156 241.707031 349.042969 240.710938 352.914062 Z M 248.824219 354.101562 C 247.703125 354.304688 246.257812 352.882812 243.382812 351.472656 C 246.761719 350.5625 248.511719 349.972656 250.292969 349.75 C 251.023438 349.6875 251.804688 350.652344 252.582031 351.136719 C 251.382812 352.15625 250.269531 353.796875 248.824219 354.101562 Z M 239.757812 277.777344 C 241.484375 283.441406 239.167969 290.804688 235.15625 295.078125 C 232.855469 297.441406 229.484375 299.308594 226.269531 297.816406 C 223.519531 296.613281 222.246094 293.265625 222.082031 290.484375 C 222.011719 288.324219 222.304688 286.128906 223.117188 284.003906 C 223.59375 280.542969 224.847656 277.089844 226.445312 274.675781 C 230.625 268.476562 237.785156 271.402344 239.757812 277.777344 Z M 501.089844 349.8125 C 499.375 349.519531 497.65625 348.746094 496.203125 348.09375 C 494.441406 347.253906 492.707031 346.296875 490.644531 344.964844 L 490.417969 344.910156 C 488.914062 344.484375 487.632812 344.117188 486.308594 343.675781 L 486.082031 343.621094 C 485.605469 343.625 485.199219 343.585938 484.675781 343.519531 C 487.023438 345.160156 489.167969 346.632812 491.273438 348.035156 C 490.78125 348.332031 490.210938 348.96875 489.875 348.886719 C 486.421875 347.636719 483 346.273438 479.503906 344.949219 C 480.1875 344.339844 480.914062 343.800781 481.597656 343.191406 C 480.445312 343.03125 479.363281 342.828125 478.167969 342.601562 L 477.941406 342.546875 L 477.730469 342.671875 C 477.410156 342.773438 477.085938 342.875 476.792969 342.863281 C 475.273438 342.734375 473.722656 342.242188 472.03125 341.355469 L 471.875 341.257812 L 471.695312 341.273438 C 469.136719 341.011719 466.976562 341.5625 464.667969 342.96875 C 462.992188 343.996094 461.316406 345.496094 459.992188 346.785156 C 459.921875 346.828125 459.851562 346.871094 459.710938 346.957031 C 459.644531 347 459.574219 347.039062 459.503906 347.082031 L 459.179688 347.183594 L 459.054688 347.453125 C 455.789062 353.574219 449.578125 358.804688 444.609375 363.085938 C 433.5 372.554688 423.40625 381.019531 412.945312 389.035156 C 411.117188 390.4375 409.46875 391.828125 408.003906 393.203125 C 400.429688 400.128906 387.921875 410.453125 382.5625 414.875 L 381.011719 416.109375 L 380.941406 416.152344 C 374.941406 423.460938 367.890625 430.933594 358.144531 440.433594 C 357.238281 441.464844 356.417969 442.636719 356.175781 443.652344 C 355.917969 444.960938 356.445312 445.980469 357.800781 446.785156 L 357.914062 446.8125 L 358.023438 446.839844 C 364.003906 447.988281 369.964844 448.476562 375.066406 448.816406 C 389.554688 449.757812 401.550781 443.78125 411.335938 437.808594 C 412.175781 437.292969 413.085938 436.738281 413.925781 436.226562 C 424.886719 429.34375 436.457031 421.417969 449.265625 412.0625 C 454.183594 408.484375 489.53125 377.40625 496.859375 365.832031 C 497.246094 365.210938 497.609375 364.703125 497.898438 364.238281 L 497.96875 364.195312 L 498.578125 362.671875 C 500.121094 358.757812 501.691406 354.726562 501.730469 350.863281 L 501.710938 350.203125 Z M 370.667969 441.136719 C 368.84375 441.769531 364.191406 443.265625 362.605469 441.453125 C 361.386719 440.085938 363.660156 437.835938 364.539062 436.914062 C 366.90625 434.507812 369.714844 432.507812 372.453125 430.546875 C 374.046875 429.382812 375.679688 428.289062 377.429688 427.222656 C 379.039062 426.238281 392.242188 417.21875 398.097656 416.90625 C 399.96875 416.820312 398.777344 419.277344 398.25 419.980469 C 397.21875 421.28125 395.992188 422.414062 394.808594 423.617188 C 392.035156 426.464844 389.019531 429.070312 385.960938 431.609375 C 381.355469 435.382812 376.382812 439.183594 370.667969 441.136719 Z M 388.003906 439.671875 C 386.503906 440.203125 382.636719 441.410156 381.332031 439.90625 C 380.355469 438.773438 382.179688 436.890625 382.960938 436.128906 C 384.929688 434.160156 387.246094 432.457031 389.496094 430.796875 C 390.851562 429.871094 392.207031 428.949219 393.605469 428.09375 C 394.933594 427.285156 405.917969 419.8125 410.820312 419.507812 C 412.390625 419.410156 411.351562 421.484375 410.921875 422.035156 C 410.058594 423.136719 409 424.070312 408.050781 425.035156 C 405.75 427.398438 403.253906 429.59375 400.671875 431.652344 C 396.929688 434.796875 392.753906 438.019531 388.003906 439.671875 Z M 425.648438 422.738281 C 424.746094 423.769531 423.796875 424.730469 422.847656 425.695312 C 420.546875 428.058594 418.121094 430.210938 415.539062 432.269531 C 411.683594 435.386719 407.691406 438.59375 402.898438 440.175781 C 401.398438 440.707031 397.53125 441.917969 396.269531 440.480469 C 395.292969 439.347656 397.117188 437.464844 397.828125 436.746094 C 399.796875 434.777344 402.113281 433.074219 404.335938 431.523438 C 405.691406 430.601562 407.046875 429.679688 408.445312 428.824219 C 409.773438 428.011719 420.6875 420.582031 425.476562 420.25 C 427.046875 420.15625 426.082031 422.1875 425.648438 422.738281 Z M 474.316406 347.925781 C 474.636719 347.824219 475.742188 349.164062 475.675781 349.207031 C 474.855469 350.378906 473.949219 351.414062 472.847656 352.753906 C 471.210938 351.644531 469.96875 350.867188 468.839844 350.117188 C 470.6875 349.371094 472.453125 348.488281 474.316406 347.925781 Z M 432.519531 389.65625 C 430.699219 390.289062 426.046875 391.785156 424.457031 389.972656 C 423.238281 388.605469 425.511719 386.355469 426.390625 385.433594 C 428.761719 383.027344 431.566406 381.027344 434.304688 379.066406 C 435.898438 377.902344 437.535156 376.808594 439.28125 375.742188 C 440.890625 374.757812 454.097656 365.738281 459.953125 365.425781 C 461.820312 365.34375 460.628906 367.796875 460.101562 368.5 C 459.074219 369.800781 457.84375 370.933594 456.660156 372.136719 C 453.886719 374.984375 450.871094 377.589844 447.816406 380.128906 C 443.207031 383.902344 438.277344 387.773438 432.519531 389.65625 Z M 449.855469 388.191406 C 448.359375 388.722656 444.488281 389.933594 443.1875 388.425781 C 442.207031 387.292969 444.035156 385.410156 444.816406 384.648438 C 446.78125 382.679688 449.097656 380.976562 451.347656 379.316406 C 452.703125 378.390625 454.058594 377.46875 455.457031 376.613281 C 456.785156 375.804688 467.769531 368.332031 472.671875 368.027344 C 474.242188 367.929688 473.207031 370.003906 472.773438 370.554688 C 471.914062 371.65625 470.851562 372.59375 469.902344 373.554688 C 467.605469 375.917969 465.105469 378.113281 462.523438 380.171875 C 458.824219 383.386719 454.648438 386.609375 449.855469 388.191406 Z M 487.542969 371.328125 C 486.640625 372.359375 485.691406 373.320312 484.742188 374.285156 C 482.445312 376.648438 480.015625 378.800781 477.433594 380.859375 C 473.578125 383.976562 469.585938 387.183594 464.792969 388.765625 C 463.296875 389.296875 459.425781 390.507812 458.164062 389.070312 C 457.1875 387.9375 459.015625 386.054688 459.726562 385.335938 C 461.691406 383.367188 464.007812 381.664062 466.230469 380.113281 C 467.585938 379.191406 468.941406 378.269531 470.339844 377.414062 C 471.667969 376.601562 482.582031 369.171875 487.371094 368.839844 C 489.015625 368.703125 487.976562 370.777344 487.542969 371.328125 Z M 191.488281 367.703125 C 191.660156 368.460938 191.472656 369.246094 191.503906 370.089844 C 190.871094 369.996094 190.308594 369.859375 189.269531 369.726562 C 189.652344 368.628906 189.886719 367.910156 190.121094 367.191406 C 190.570312 367.300781 191.429688 367.449219 191.488281 367.703125 Z M 192.320312 362.777344 C 191.691406 363.164062 190.761719 363.058594 189.121094 363.195312 C 189.839844 361.703125 190.015625 360.730469 190.601562 360.277344 C 191.019531 360.019531 192.191406 360.363281 192.601562 360.878906 C 192.925781 361.257812 192.671875 362.566406 192.320312 362.777344 Z M 192.320312 362.777344 " fill-opacity="1" fill-rule="nonzero"/></g></g></g><g fill="#000000" fill-opacity="1"><g transform="translate(131.475115, 578.422084)"><g><path d="M 65.226562 -80.984375 L 51.277344 -80.984375 C 49.855469 -80.984375 49.46875 -79.433594 50.371094 -78.398438 C 53.085938 -75.042969 54.117188 -75.300781 51.792969 -70.519531 L 42.234375 -51.148438 C 38.101562 -59.542969 34.355469 -67.164062 34.355469 -67.421875 C 32.03125 -72.070312 31.386719 -75.042969 34.226562 -78.398438 C 35.003906 -79.433594 34.742188 -80.984375 33.324219 -80.984375 L 1.292969 -80.984375 C -0.128906 -80.984375 -0.644531 -79.433594 1.164062 -78.398438 C 7.234375 -75.042969 9.558594 -72.070312 11.882812 -67.421875 L 24.023438 -42.363281 C 23.894531 -33.453125 22.992188 -21.699219 18.726562 -18.46875 C 17.4375 -17.4375 17.308594 -15.242188 20.148438 -15.242188 L 46.109375 -15.242188 C 48.824219 -15.242188 48.824219 -17.4375 47.402344 -18.46875 C 43.269531 -21.699219 42.363281 -33.453125 42.234375 -42.492188 L 44.300781 -46.753906 L 56.054688 -70.519531 C 58.507812 -75.300781 59.15625 -75.042969 65.355469 -78.398438 C 67.164062 -79.433594 66.515625 -80.984375 65.226562 -80.984375 Z M 65.226562 -80.984375 "/></g></g></g><g fill="#000000" fill-opacity="1"><g transform="translate(186.235245, 578.422084)"><g><path d="M 67.550781 -17.953125 C 62.125 -21.3125 61.738281 -24.152344 60.316406 -28.933594 C 60.058594 -29.449219 48.433594 -67.679688 48.304688 -68.195312 C 46.753906 -72.976562 41.71875 -80.984375 33.710938 -80.984375 L 21.183594 -80.984375 C 19.761719 -80.984375 18.855469 -79.433594 19.890625 -78.398438 C 23.25 -75.042969 22.859375 -70.910156 21.441406 -66.128906 L 9.945312 -28.800781 C 7.878906 -22.859375 4.777344 -20.148438 0.902344 -17.953125 C -0.773438 -16.921875 0.128906 -15.242188 1.421875 -15.242188 L 20.925781 -15.242188 C 22.214844 -15.242188 22.730469 -16.921875 21.699219 -17.953125 C 13.949219 -25.445312 14.851562 -31.902344 15.886719 -35.519531 L 38.359375 -35.519531 C 39.523438 -27.769531 39.652344 -21.054688 37.328125 -17.953125 C 36.550781 -16.789062 37.328125 -15.242188 38.617188 -15.242188 L 67.292969 -15.242188 C 68.582031 -15.242188 69.230469 -16.921875 67.550781 -17.953125 Z M 17.050781 -39.136719 L 26.605469 -70.390625 C 29.320312 -67.9375 35.003906 -52.828125 37.714844 -39.136719 Z M 17.050781 -39.136719 "/></g></g></g><g fill="#000000" fill-opacity="1"><g transform="translate(256.880986, 578.422084)"><g><path d="M 62.640625 -80.984375 L 6.328125 -80.984375 C 3.875 -80.984375 3.101562 -79.949219 2.839844 -77.496094 C 2.453125 -74.007812 1.035156 -67.292969 1.035156 -66.386719 C 1.035156 -64.96875 3.101562 -64.710938 4.261719 -65.871094 C 8.523438 -70.003906 17.308594 -77.367188 22.472656 -77.367188 L 25.445312 -77.367188 L 25.445312 -48.175781 C 25.445312 -39.136719 24.410156 -22.085938 19.503906 -18.46875 C 18.210938 -17.4375 18.210938 -15.242188 20.925781 -15.242188 L 48.046875 -15.242188 C 50.890625 -15.242188 50.761719 -17.4375 49.46875 -18.46875 C 44.558594 -22.085938 43.527344 -39.136719 43.527344 -48.175781 L 43.527344 -77.367188 L 46.496094 -77.367188 C 51.664062 -77.367188 60.445312 -70.003906 64.710938 -65.871094 C 66 -64.710938 67.9375 -64.96875 67.9375 -66.386719 C 67.9375 -67.292969 66.515625 -74.007812 66.128906 -77.496094 C 65.871094 -79.949219 65.097656 -80.984375 62.640625 -80.984375 Z M 62.640625 -80.984375 "/></g></g></g><g fill="#000000" fill-opacity="1"><g transform="translate(312.157726, 578.422084)"><g><path d="M 55.152344 -38.359375 C 51.792969 -33.839844 42.363281 -18.855469 34.355469 -18.855469 L 28.027344 -18.855469 C 42.234375 -37.585938 50.113281 -61.09375 55.667969 -76.074219 C 56.832031 -79.175781 56.054688 -80.984375 53.214844 -80.984375 L 14.207031 -80.984375 C 7.363281 -80.984375 0 -76.980469 0 -70.519531 C 0 -61.222656 13.691406 -57.476562 18.46875 -65.871094 C 22.085938 -72.457031 25.574219 -77.367188 31.257812 -77.367188 L 32.675781 -77.367188 C 28.671875 -66.257812 16.015625 -32.160156 3.488281 -20.277344 C 1.035156 -17.953125 2.96875 -15.242188 5.941406 -15.242188 L 52.050781 -15.242188 C 54.503906 -15.242188 55.28125 -16.273438 55.539062 -18.855469 C 55.925781 -22.34375 57.863281 -36.941406 57.863281 -37.84375 C 57.863281 -39.265625 56.183594 -39.652344 55.152344 -38.359375 Z M 55.152344 -38.359375 "/></g></g></g><g fill="#000000" fill-opacity="1"><g transform="translate(372.342208, 578.422084)"><g><path d="M 65.226562 -80.984375 L 51.277344 -80.984375 C 49.855469 -80.984375 49.46875 -79.433594 50.371094 -78.398438 C 53.085938 -75.042969 54.117188 -75.300781 51.792969 -70.519531 L 42.234375 -51.148438 C 38.101562 -59.542969 34.355469 -67.164062 34.355469 -67.421875 C 32.03125 -72.070312 31.386719 -75.042969 34.226562 -78.398438 C 35.003906 -79.433594 34.742188 -80.984375 33.324219 -80.984375 L 1.292969 -80.984375 C -0.128906 -80.984375 -0.644531 -79.433594 1.164062 -78.398438 C 7.234375 -75.042969 9.558594 -72.070312 11.882812 -67.421875 L 24.023438 -42.363281 C 23.894531 -33.453125 22.992188 -21.699219 18.726562 -18.46875 C 17.4375 -17.4375 17.308594 -15.242188 20.148438 -15.242188 L 46.109375 -15.242188 C 48.824219 -15.242188 48.824219 -17.4375 47.402344 -18.46875 C 43.269531 -21.699219 42.363281 -33.453125 42.234375 -42.492188 L 44.300781 -46.753906 L 56.054688 -70.519531 C 58.507812 -75.300781 59.15625 -75.042969 65.355469 -78.398438 C 67.164062 -79.433594 66.515625 -80.984375 65.226562 -80.984375 Z M 65.226562 -80.984375 "/></g></g></g></svg>