<svg xmlns="http://www.w3.org/2000/svg" version="1.1" xmlns:xlink="http://www.w3.org/1999/xlink" xmlns:svgjs="http://svgjs.dev/svgjs" width="1920" height="1080" preserveAspectRatio="none" viewBox="0 0 1920 1080"><g mask="url(&quot;#SvgjsMask1086&quot;)" fill="none"><rect width="1920" height="1080" x="0" y="0" fill="rgba(238, 238, 187, 1)"></rect><path d="M1920 0L1071.17 0L1920 439.99z" fill="rgba(255, 255, 255, .1)"></path><path d="M1071.17 0L1920 439.99L1920 619.34L543.0400000000001 0z" fill="rgba(255, 255, 255, .075)"></path><path d="M543.04 0L1920 619.34L1920 708.95L319.78 0z" fill="rgba(255, 255, 255, .05)"></path><path d="M319.78 0L1920 708.95L1920 969.3700000000001L301.75 0z" fill="rgba(255, 255, 255, .025)"></path><path d="M0 1080L258.37 1080L0 639.26z" fill="rgba(0, 0, 0, .1)"></path><path d="M0 639.26L258.37 1080L1052.54 1080L0 414.15999999999997z" fill="rgba(0, 0, 0, .075)"></path><path d="M0 414.15999999999997L1052.54 1080L1592.63 1080L0 217.12999999999997z" fill="rgba(0, 0, 0, .05)"></path><path d="M0 217.13L1592.63 1080L1707.16 1080L0 138.2z" fill="rgba(0, 0, 0, .025)"></path></g><defs><mask id="SvgjsMask1086"><rect width="1920" height="1080" fill="#ffffff"></rect></mask></defs></svg>